<svg width="94" height="34" viewBox="0 0 94 34" fill="none" xmlns="http://www.w3.org/2000/svg">
<path d="M20.832 7.64C20.832 9 20.352 10.176 19.392 11.168C18.432 12.144 17.032 12.848 15.192 13.28C16.184 13.552 16.936 14 17.448 14.624C17.96 15.232 18.216 15.936 18.216 16.736C18.216 18 17.816 19.096 17.016 20.024C16.232 20.952 15.08 21.672 13.56 22.184C12.04 22.68 10.208 22.928 8.064 22.928C7.264 22.928 6.624 22.904 6.144 22.856C6.128 23.304 5.936 23.64 5.568 23.864C5.2 24.088 4.728 24.2 4.152 24.2C3.576 24.2 3.176 24.072 2.952 23.816C2.744 23.56 2.656 23.184 2.688 22.688C2.832 20.448 3.112 18.104 3.528 15.656C3.944 13.192 4.472 10.816 5.112 8.528C5.224 8.128 5.448 7.848 5.784 7.688C6.12 7.528 6.56 7.448 7.104 7.448C8.08 7.448 8.568 7.72 8.568 8.264C8.568 8.488 8.52 8.744 8.424 9.032C8.008 10.28 7.592 11.976 7.176 14.12C6.76 16.248 6.464 18.28 6.288 20.216C7.056 20.28 7.68 20.312 8.16 20.312C10.4 20.312 12.04 19.992 13.08 19.352C14.136 18.696 14.664 17.864 14.664 16.856C14.664 16.152 14.36 15.56 13.752 15.08C13.16 14.6 12.16 14.336 10.752 14.288C10.432 14.272 10.208 14.192 10.08 14.048C9.952 13.904 9.888 13.672 9.888 13.352C9.888 12.888 9.984 12.512 10.176 12.224C10.368 11.936 10.72 11.784 11.232 11.768C12.368 11.736 13.392 11.568 14.304 11.264C15.232 10.96 15.96 10.536 16.488 9.992C17.016 9.432 17.28 8.784 17.28 8.048C17.28 7.12 16.824 6.392 15.912 5.864C15 5.32 13.6 5.048 11.712 5.048C10 5.048 8.344 5.272 6.744 5.72C5.144 6.152 3.784 6.704 2.664 7.376C2.152 7.68 1.72 7.832 1.368 7.832C1.08 7.832 0.856 7.736 0.696 7.544C0.552 7.336 0.48 7.08 0.48 6.776C0.48 6.376 0.56 6.032 0.72 5.744C0.896 5.456 1.304 5.128 1.944 4.76C3.288 3.992 4.864 3.392 6.672 2.96C8.48 2.528 10.328 2.312 12.216 2.312C15.112 2.312 17.272 2.8 18.696 3.776C20.12 4.752 20.832 6.04 20.832 7.64ZM23.6788 10.232C23.0068 10.232 22.5028 10.08 22.1668 9.776C21.8308 9.456 21.6628 9.016 21.6628 8.456C21.6628 7.896 21.8788 7.432 22.3108 7.064C22.7588 6.68 23.3108 6.488 23.9668 6.488C24.5588 6.488 25.0388 6.632 25.4068 6.92C25.7748 7.208 25.9588 7.616 25.9588 8.144C25.9588 8.784 25.7508 9.296 25.3348 9.68C24.9188 10.048 24.3668 10.232 23.6788 10.232ZM23.4868 23.12C22.4468 23.12 21.6868 22.752 21.2068 22.016C20.7428 21.28 20.5108 20.304 20.5108 19.088C20.5108 18.368 20.5988 17.448 20.7748 16.328C20.9668 15.192 21.2068 14.136 21.4948 13.16C21.6388 12.648 21.8308 12.296 22.0708 12.104C22.3108 11.912 22.6948 11.816 23.2228 11.816C24.0388 11.816 24.4468 12.088 24.4468 12.632C24.4468 13.032 24.2948 13.96 23.9908 15.416C23.6068 17.176 23.4148 18.368 23.4148 18.992C23.4148 19.472 23.4788 19.84 23.6068 20.096C23.7348 20.352 23.9508 20.48 24.2548 20.48C24.5428 20.48 24.9028 20.28 25.3348 19.88C25.7668 19.48 26.3428 18.848 27.0628 17.984C27.2548 17.76 27.4708 17.648 27.7108 17.648C27.9188 17.648 28.0788 17.744 28.1908 17.936C28.3188 18.128 28.3828 18.392 28.3828 18.728C28.3828 19.368 28.2308 19.864 27.9268 20.216C26.3428 22.152 24.8628 23.12 23.4868 23.12ZM34.5771 12.608C34.9771 12.608 35.2571 12.672 35.4171 12.8C35.5931 12.912 35.6811 13.144 35.6811 13.496C35.6811 13.688 35.6731 13.84 35.6571 13.952C35.5931 14.448 35.3931 15.728 35.0571 17.792C34.8171 19.184 34.6651 20.104 34.6011 20.552C33.9931 24.68 33.1691 27.936 32.1291 30.32C31.1051 32.72 29.7291 33.92 28.0011 33.92C27.1851 33.92 26.5211 33.664 26.0091 33.152C25.4971 32.656 25.2411 32 25.2411 31.184C25.2411 30.048 25.6891 28.824 26.5851 27.512C27.4811 26.216 29.1611 24.616 31.6251 22.712L31.7691 21.776C31.4971 22.208 31.1371 22.544 30.6891 22.784C30.2571 23.008 29.8251 23.12 29.3931 23.12C28.4011 23.12 27.6091 22.76 27.0171 22.04C26.4251 21.32 26.1291 20.376 26.1291 19.208C26.1291 17.928 26.4251 16.72 27.0171 15.584C27.6091 14.432 28.3931 13.512 29.3691 12.824C30.3611 12.12 31.4091 11.768 32.5131 11.768C32.8651 11.768 33.0971 11.84 33.2091 11.984C33.3371 12.112 33.4411 12.352 33.5211 12.704C33.8251 12.64 34.1771 12.608 34.5771 12.608ZM30.2571 20.696C30.6251 20.696 30.9771 20.472 31.3131 20.024C31.6491 19.576 31.8891 18.936 32.0331 18.104L32.8011 14C32.1451 14.016 31.5371 14.272 30.9771 14.768C30.4171 15.248 29.9691 15.888 29.6331 16.688C29.2971 17.488 29.1291 18.336 29.1291 19.232C29.1291 19.728 29.2251 20.096 29.4171 20.336C29.6251 20.576 29.9051 20.696 30.2571 20.696ZM28.2651 31.592C28.6651 31.592 29.1131 31.112 29.6091 30.152C30.1211 29.192 30.6091 27.664 31.0731 25.568C29.8411 26.624 28.9531 27.576 28.4091 28.424C27.8651 29.272 27.5931 30.016 27.5931 30.656C27.5931 30.928 27.6411 31.152 27.7371 31.328C27.8491 31.504 28.0251 31.592 28.2651 31.592ZM49.8139 23.12C48.8859 23.12 47.8379 23.04 46.6699 22.88C46.0299 22.8 45.5899 22.632 45.3499 22.376C45.1099 22.12 45.0059 21.704 45.0379 21.128C45.1499 19.544 45.4139 17.592 45.8299 15.272C46.2459 12.936 46.7499 10.688 47.3419 8.528C47.4539 8.128 47.6779 7.848 48.0139 7.688C48.3499 7.528 48.7899 7.448 49.3339 7.448C50.3099 7.448 50.7979 7.72 50.7979 8.264C50.7979 8.488 50.7499 8.744 50.6539 9.032C50.2379 10.312 49.8219 12.032 49.4059 14.192C48.9899 16.336 48.6939 18.384 48.5179 20.336C48.9979 20.384 49.5419 20.408 50.1499 20.408C52.9499 20.408 55.0379 19.56 56.4139 17.864C57.8059 16.168 58.5019 13.904 58.5019 11.072C58.5019 9.168 57.9579 7.696 56.8699 6.656C55.7819 5.616 54.2459 5.096 52.2619 5.096C50.9819 5.096 49.7099 5.296 48.4459 5.696C47.1979 6.096 46.0699 6.624 45.0619 7.28C44.8539 7.424 44.6299 7.496 44.3899 7.496C44.1179 7.496 43.9019 7.384 43.7419 7.16C43.5819 6.92 43.5019 6.632 43.5019 6.296C43.5019 5.912 43.5659 5.6 43.6939 5.36C43.8219 5.104 44.0379 4.872 44.3419 4.664C45.4459 3.912 46.7419 3.344 48.2299 2.96C49.7179 2.56 51.1499 2.36 52.5259 2.36C54.4779 2.36 56.1659 2.704 57.5899 3.392C59.0139 4.064 60.1099 5.056 60.8779 6.368C61.6459 7.68 62.0299 9.264 62.0299 11.12C62.0299 13.536 61.5499 15.648 60.5899 17.456C59.6299 19.248 58.2299 20.64 56.3899 21.632C54.5499 22.624 52.3579 23.12 49.8139 23.12ZM74.3404 17.648C74.5484 17.648 74.7084 17.744 74.8204 17.936C74.9484 18.128 75.0124 18.392 75.0124 18.728C75.0124 19.368 74.8604 19.864 74.5564 20.216C73.9644 20.936 73.1244 21.6 72.0364 22.208C70.9644 22.816 69.8124 23.12 68.5804 23.12C66.9004 23.12 65.5964 22.664 64.6684 21.752C63.7404 20.84 63.2764 19.592 63.2764 18.008C63.2764 16.904 63.5084 15.88 63.9724 14.936C64.4364 13.976 65.0764 13.216 65.8924 12.656C66.7244 12.096 67.6604 11.816 68.7004 11.816C69.6284 11.816 70.3724 12.096 70.9324 12.656C71.4924 13.2 71.7724 13.944 71.7724 14.888C71.7724 15.992 71.3724 16.944 70.5724 17.744C69.7884 18.528 68.4524 19.152 66.5644 19.616C66.9644 20.352 67.7244 20.72 68.8444 20.72C69.5644 20.72 70.3804 20.472 71.2924 19.976C72.2204 19.464 73.0204 18.8 73.6924 17.984C73.8844 17.76 74.1004 17.648 74.3404 17.648ZM68.2924 14.168C67.7004 14.168 67.1964 14.512 66.7804 15.2C66.3804 15.888 66.1804 16.72 66.1804 17.696V17.744C67.1244 17.52 67.8684 17.184 68.4124 16.736C68.9564 16.288 69.2284 15.768 69.2284 15.176C69.2284 14.872 69.1404 14.632 68.9644 14.456C68.8044 14.264 68.5804 14.168 68.2924 14.168ZM75.8931 23.12C74.9011 23.12 74.1091 22.76 73.5171 22.04C72.9251 21.32 72.6291 20.376 72.6291 19.208C72.6291 17.928 72.9251 16.72 73.5171 15.584C74.1091 14.432 74.8931 13.512 75.8691 12.824C76.8611 12.12 77.9091 11.768 79.0131 11.768C79.3651 11.768 79.5971 11.84 79.7091 11.984C79.8371 12.112 79.9411 12.352 80.0211 12.704C80.3571 12.64 80.7091 12.608 81.0771 12.608C81.8611 12.608 82.2531 12.888 82.2531 13.448C82.2531 13.784 82.1331 14.584 81.8931 15.848C81.5251 17.688 81.3411 18.968 81.3411 19.688C81.3411 19.928 81.3971 20.12 81.5091 20.264C81.6371 20.408 81.7971 20.48 81.9891 20.48C82.2931 20.48 82.6611 20.288 83.0931 19.904C83.5251 19.504 84.1091 18.864 84.8451 17.984C85.0371 17.76 85.2531 17.648 85.4931 17.648C85.7011 17.648 85.8611 17.744 85.9731 17.936C86.1011 18.128 86.1651 18.392 86.1651 18.728C86.1651 19.368 86.0131 19.864 85.7091 20.216C85.0531 21.032 84.3571 21.72 83.6211 22.28C82.8851 22.84 82.1731 23.12 81.4851 23.12C80.9571 23.12 80.4691 22.944 80.0211 22.592C79.5891 22.224 79.2611 21.728 79.0371 21.104C78.2051 22.448 77.1571 23.12 75.8931 23.12ZM76.7571 20.696C77.1091 20.696 77.4451 20.488 77.7651 20.072C78.0851 19.656 78.3171 19.104 78.4611 18.416L79.3491 14C78.6771 14.016 78.0531 14.272 77.4771 14.768C76.9171 15.248 76.4691 15.888 76.1331 16.688C75.7971 17.488 75.6291 18.336 75.6291 19.232C75.6291 19.728 75.7251 20.096 75.9171 20.336C76.1251 20.576 76.4051 20.696 76.7571 20.696ZM91.1505 19.616C91.3265 19.456 91.5025 19.376 91.6785 19.376C91.8705 19.376 92.0225 19.488 92.1345 19.712C92.2625 19.92 92.3265 20.176 92.3265 20.48C92.3265 21.152 92.0865 21.688 91.6065 22.088C90.7745 22.776 89.8305 23.12 88.7745 23.12C87.2545 23.12 86.1425 22.488 85.4385 21.224C84.7345 19.944 84.3825 18.28 84.3825 16.232C84.3825 14.28 84.6305 12.056 85.1265 9.56C85.6385 7.064 86.3825 4.92 87.3585 3.128C88.3505 1.336 89.5265 0.439999 90.8865 0.439999C91.6545 0.439999 92.2545 0.799999 92.6865 1.52C93.1345 2.224 93.3585 3.24 93.3585 4.568C93.3585 6.472 92.8305 8.68 91.7745 11.192C90.7345 13.704 89.3105 16.184 87.5025 18.632C87.6145 19.288 87.8145 19.76 88.1025 20.048C88.3905 20.336 88.7825 20.48 89.2785 20.48C89.5505 20.48 89.8545 20.4 90.1905 20.24C90.5425 20.08 90.8625 19.872 91.1505 19.616ZM90.3585 2.816C89.9905 2.816 89.5745 3.48 89.1105 4.808C88.6465 6.136 88.2385 7.784 87.8865 9.752C87.5345 11.72 87.3425 13.608 87.3105 15.416C88.4465 13.544 89.3505 11.672 90.0225 9.8C90.6945 7.912 91.0305 6.192 91.0305 4.64C91.0305 3.424 90.8065 2.816 90.3585 2.816Z" fill="#6F42C1"/>
</svg>
