<svg width="33" height="32" viewBox="0 0 33 32" fill="none" xmlns="http://www.w3.org/2000/svg">
<path d="M23.1667 26.6666C24.6394 26.6666 25.8333 25.4727 25.8333 24C25.8333 22.5272 24.6394 21.3333 23.1667 21.3333C21.6939 21.3333 20.5 22.5272 20.5 24C20.5 25.4727 21.6939 26.6666 23.1667 26.6666Z" stroke="#F4F8FF" stroke-width="1.5"/>
<path d="M9.83329 26.6666C11.3061 26.6666 12.5 25.4727 12.5 24C12.5 22.5272 11.3061 21.3333 9.83329 21.3333C8.36053 21.3333 7.16663 22.5272 7.16663 24C7.16663 25.4727 8.36053 26.6666 9.83329 26.6666Z" stroke="#F4F8FF" stroke-width="1.5"/>
<path d="M7.16663 23.9632C5.70433 23.8904 4.79209 23.6728 4.14293 23.0237C3.49377 22.3745 3.27625 21.4622 3.20336 20M12.5 24H20.5M25.8333 23.9632C27.2956 23.8904 28.2078 23.6728 28.857 23.0237C29.8333 22.0473 29.8333 20.476 29.8333 17.3333V14.6666H23.5666C22.574 14.6666 22.0776 14.6666 21.676 14.5361C20.8641 14.2724 20.2276 13.6358 19.9638 12.824C19.8333 12.4223 19.8333 11.926 19.8333 10.9333C19.8333 9.44429 19.8333 8.69978 19.6376 8.09725C19.2418 6.8795 18.2872 5.92475 17.0694 5.52909C16.4669 5.33331 15.7224 5.33331 14.2333 5.33331H3.16663" stroke="#F4F8FF" stroke-width="1.5" stroke-linecap="round" stroke-linejoin="round"/>
<path d="M3.16663 10.6667H11.1666" stroke="#F4F8FF" stroke-width="1.5" stroke-linecap="round" stroke-linejoin="round"/>
<path d="M3.16663 14.6667H8.49996" stroke="#F4F8FF" stroke-width="1.5" stroke-linecap="round" stroke-linejoin="round"/>
<path d="M19.8334 8H22.2616C24.2022 8 25.1723 8 25.9619 8.47161C26.7515 8.94323 27.2115 9.79748 28.1315 11.506L29.8334 14.6667" stroke="#F4F8FF" stroke-width="1.5" stroke-linecap="round" stroke-linejoin="round"/>
</svg>
