<svg width="33" height="32" viewBox="0 0 33 32" fill="none" xmlns="http://www.w3.org/2000/svg">
<path d="M3.16675 5C2.61447 5 2.16675 5.44772 2.16675 6C2.16675 6.55228 2.61447 7 3.16675 7V5ZM18.4597 12.0404C18.8502 12.431 19.4833 12.431 19.8738 12.0404C20.2643 11.6499 20.2643 11.0167 19.8738 10.6262L18.4597 12.0404ZM3.16675 7H12.1766V5H3.16675V7ZM14.2978 7.87868L18.4597 12.0404L19.8738 10.6262L15.7121 6.46447L14.2978 7.87868ZM12.1766 7C12.9722 7 13.7353 7.31607 14.2978 7.87868L15.7121 6.46447C14.7743 5.52679 13.5026 5 12.1766 5V7Z" fill="#F4F8FF"/>
<path d="M7.16675 18H3.16675" stroke="#F4F8FF" stroke-width="1.5" stroke-linecap="round" stroke-linejoin="round"/>
<path d="M12.5403 9.29289C12.1498 8.90237 11.5166 8.90237 11.1261 9.29289C10.7356 9.68341 10.7356 10.3166 11.1261 10.7071L12.5403 9.29289ZM9.83323 13.3333L10.5403 12.6262C10.1498 12.2357 9.51664 12.2357 9.12612 12.6262L9.83323 13.3333ZM5.76656 12.5333C5.32474 12.202 4.69794 12.2915 4.36656 12.7333C4.03519 13.1752 4.12474 13.802 4.56656 14.1333L5.76656 12.5333ZM11.1261 10.7071L13.7928 13.3737L15.207 11.9596L12.5403 9.29289L11.1261 10.7071ZM12.5403 14.6263L10.5403 12.6262L9.12612 14.0404L11.1261 16.0404L12.5403 14.6263ZM6.17048 12.8363L5.76656 12.5333L4.56656 14.1333L4.97048 14.4363L6.17048 12.8363ZM9.12612 12.6262C8.33043 13.4219 7.07072 13.5115 6.17048 12.8363L4.97048 14.4363C6.66696 15.7087 9.04086 15.5399 10.5403 14.0404L9.12612 12.6262ZM13.7928 14.6263C13.4469 14.9721 12.8862 14.9721 12.5403 14.6263L11.1261 16.0404C12.253 17.1673 14.0802 17.1673 15.207 16.0404L13.7928 14.6263ZM13.7928 13.3737C14.1387 13.7196 14.1387 14.2804 13.7928 14.6263L15.207 16.0404C16.3339 14.9136 16.3339 13.0865 15.207 11.9596L13.7928 13.3737Z" fill="#F4F8FF"/>
<path d="M7.16675 14.6666V20.6666C7.16675 23.1808 7.16675 24.4378 7.9478 25.2189C8.72884 26 9.98592 26 12.5001 26H24.5001C27.0142 26 28.2713 26 29.0523 25.2189C29.8334 24.4378 29.8334 23.1808 29.8334 20.6666V16.6666C29.8334 14.1525 29.8334 12.8954 29.0523 12.1144C28.2713 11.3333 27.0142 11.3333 24.5001 11.3333H13.1667" stroke="#F4F8FF" stroke-width="1.5" stroke-linecap="round" stroke-linejoin="round"/>
<path d="M20.8334 18.6666C20.8334 19.9553 19.7887 21 18.5001 21C17.2114 21 16.1667 19.9553 16.1667 18.6666C16.1667 17.378 17.2114 16.3333 18.5001 16.3333C19.7887 16.3333 20.8334 17.378 20.8334 18.6666Z" stroke="#F4F8FF" stroke-width="1.5" stroke-linecap="round" stroke-linejoin="round"/>
</svg>
